<mxfile host="app.diagrams.net" modified="2021-09-13T14:50:36.375Z" agent="5.0 (Windows NT 10.0; Win64; x64) AppleWebKit/537.36 (KHTML, like Gecko) Chrome/93.0.4577.63 Safari/537.36" etag="hb6tTuolXdGa4idMejqP" version="15.2.4" type="github">
  <diagram id="3Ae4rYN71YUyW5h60TO-" name="Page-1">
    <mxGraphModel dx="1240" dy="643" grid="1" gridSize="10" guides="1" tooltips="1" connect="1" arrows="1" fold="1" page="1" pageScale="1" pageWidth="850" pageHeight="1100" math="0" shadow="0">
      <root>
        <mxCell id="0" />
        <mxCell id="1" parent="0" />
        <mxCell id="XcxY55ZgRGtIY92PdKvF-15" style="edgeStyle=orthogonalEdgeStyle;rounded=0;orthogonalLoop=1;jettySize=auto;html=1;entryX=0.5;entryY=0;entryDx=0;entryDy=0;entryPerimeter=0;" edge="1" parent="1" source="XcxY55ZgRGtIY92PdKvF-7" target="XcxY55ZgRGtIY92PdKvF-14">
          <mxGeometry relative="1" as="geometry" />
        </mxCell>
        <mxCell id="XcxY55ZgRGtIY92PdKvF-7" value="" style="sketch=0;pointerEvents=1;shadow=0;dashed=0;html=1;strokeColor=none;fillColor=#434445;aspect=fixed;labelPosition=center;verticalLabelPosition=bottom;verticalAlign=top;align=center;outlineConnect=0;shape=mxgraph.vvd.phone;" vertex="1" parent="1">
          <mxGeometry x="40" y="40" width="236" height="400" as="geometry" />
        </mxCell>
        <mxCell id="XcxY55ZgRGtIY92PdKvF-8" value="Play" style="html=1;shadow=0;dashed=0;shape=mxgraph.bootstrap.rrect;rSize=5;strokeColor=none;strokeWidth=1;fillColor=#343A40;fontColor=#ffffff;whiteSpace=wrap;align=center;verticalAlign=middle;spacingLeft=0;fontStyle=0;fontSize=16;spacing=5;" vertex="1" parent="1">
          <mxGeometry x="127" y="180" width="62" height="20" as="geometry" />
        </mxCell>
        <mxCell id="XcxY55ZgRGtIY92PdKvF-9" value="Settings" style="html=1;shadow=0;dashed=0;shape=mxgraph.bootstrap.rrect;rSize=5;strokeColor=none;strokeWidth=1;fillColor=#343A40;fontColor=#ffffff;whiteSpace=wrap;align=center;verticalAlign=middle;spacingLeft=0;fontStyle=0;fontSize=16;spacing=5;" vertex="1" parent="1">
          <mxGeometry x="121.5" y="220" width="73" height="20" as="geometry" />
        </mxCell>
        <mxCell id="XcxY55ZgRGtIY92PdKvF-10" value="Credits" style="html=1;shadow=0;dashed=0;shape=mxgraph.bootstrap.rrect;rSize=5;strokeColor=none;strokeWidth=1;fillColor=#343A40;fontColor=#ffffff;whiteSpace=wrap;align=center;verticalAlign=middle;spacingLeft=0;fontStyle=0;fontSize=16;spacing=5;" vertex="1" parent="1">
          <mxGeometry x="121.5" y="260" width="73" height="20" as="geometry" />
        </mxCell>
        <mxCell id="XcxY55ZgRGtIY92PdKvF-11" value="" style="sketch=0;pointerEvents=1;shadow=0;dashed=0;html=1;strokeColor=none;fillColor=#434445;aspect=fixed;labelPosition=center;verticalLabelPosition=bottom;verticalAlign=top;align=center;outlineConnect=0;shape=mxgraph.vvd.phone;" vertex="1" parent="1">
          <mxGeometry x="40" y="600" width="236" height="400" as="geometry" />
        </mxCell>
        <mxCell id="XcxY55ZgRGtIY92PdKvF-16" style="edgeStyle=orthogonalEdgeStyle;rounded=0;orthogonalLoop=1;jettySize=auto;html=1;" edge="1" parent="1" source="XcxY55ZgRGtIY92PdKvF-14" target="XcxY55ZgRGtIY92PdKvF-11">
          <mxGeometry relative="1" as="geometry" />
        </mxCell>
        <mxCell id="XcxY55ZgRGtIY92PdKvF-14" value="Play" style="html=1;shadow=0;dashed=0;shape=mxgraph.bootstrap.rrect;rSize=5;strokeColor=none;strokeWidth=1;fillColor=#343A40;fontColor=#ffffff;whiteSpace=wrap;align=center;verticalAlign=middle;spacingLeft=0;fontStyle=0;fontSize=16;spacing=5;" vertex="1" parent="1">
          <mxGeometry x="127" y="510" width="62" height="20" as="geometry" />
        </mxCell>
        <mxCell id="XcxY55ZgRGtIY92PdKvF-17" value="" style="shape=umlActor;verticalLabelPosition=bottom;verticalAlign=top;html=1;outlineConnect=0;" vertex="1" parent="1">
          <mxGeometry x="151.5" y="900" width="15" height="30" as="geometry" />
        </mxCell>
        <mxCell id="XcxY55ZgRGtIY92PdKvF-22" value="" style="shape=image;html=1;verticalAlign=top;verticalLabelPosition=bottom;labelBackgroundColor=#ffffff;imageAspect=0;aspect=fixed;image=https://cdn1.iconfinder.com/data/icons/among-us-game-line/32/Among_Us_pet-128.png" vertex="1" parent="1">
          <mxGeometry x="160" y="650.5" width="47.5" height="47.5" as="geometry" />
        </mxCell>
        <mxCell id="XcxY55ZgRGtIY92PdKvF-23" value="" style="shape=image;html=1;verticalAlign=top;verticalLabelPosition=bottom;labelBackgroundColor=#ffffff;imageAspect=0;aspect=fixed;image=https://cdn2.iconfinder.com/data/icons/web-development-and-studio/512/33_Asteroid_astronomy_meteor_space_comet_space-128.png" vertex="1" parent="1">
          <mxGeometry x="79" y="760" width="48" height="48" as="geometry" />
        </mxCell>
        <mxCell id="XcxY55ZgRGtIY92PdKvF-24" value="" style="shape=image;html=1;verticalAlign=top;verticalLabelPosition=bottom;labelBackgroundColor=#ffffff;imageAspect=0;aspect=fixed;image=https://cdn1.iconfinder.com/data/icons/among-us-game-line/32/Among_Us_pet-128.png" vertex="1" parent="1">
          <mxGeometry x="207.5" y="650.5" width="47.5" height="47.5" as="geometry" />
        </mxCell>
        <mxCell id="XcxY55ZgRGtIY92PdKvF-25" value="" style="shape=image;html=1;verticalAlign=top;verticalLabelPosition=bottom;labelBackgroundColor=#ffffff;imageAspect=0;aspect=fixed;image=https://cdn2.iconfinder.com/data/icons/web-development-and-studio/512/33_Asteroid_astronomy_meteor_space_comet_space-128.png" vertex="1" parent="1">
          <mxGeometry x="207.5" y="810" width="28" height="28" as="geometry" />
        </mxCell>
        <mxCell id="XcxY55ZgRGtIY92PdKvF-26" value="" style="shape=image;html=1;verticalAlign=top;verticalLabelPosition=bottom;labelBackgroundColor=#ffffff;imageAspect=0;aspect=fixed;image=https://cdn4.iconfinder.com/data/icons/sports-outline-24-px/24/Ball_sport_tennis_game_play-128.png" vertex="1" parent="1">
          <mxGeometry x="121.5" y="850" width="28" height="28" as="geometry" />
        </mxCell>
        <mxCell id="XcxY55ZgRGtIY92PdKvF-27" value="" style="rounded=0;whiteSpace=wrap;html=1;fillColor=#000000;" vertex="1" parent="1">
          <mxGeometry x="140" y="888" width="40" height="10" as="geometry" />
        </mxCell>
        <mxCell id="XcxY55ZgRGtIY92PdKvF-30" value="" style="rounded=1;whiteSpace=wrap;html=1;fillColor=#000000;" vertex="1" parent="1">
          <mxGeometry x="54" y="614" width="207" height="36" as="geometry" />
        </mxCell>
        <mxCell id="XcxY55ZgRGtIY92PdKvF-32" value="" style="verticalLabelPosition=bottom;verticalAlign=top;html=1;shape=mxgraph.basic.heart;fillColor=#FF0000;" vertex="1" parent="1">
          <mxGeometry x="59" y="626" width="12" height="12" as="geometry" />
        </mxCell>
        <mxCell id="XcxY55ZgRGtIY92PdKvF-34" value="" style="verticalLabelPosition=bottom;verticalAlign=top;html=1;shape=mxgraph.basic.heart;fillColor=#FF0000;" vertex="1" parent="1">
          <mxGeometry x="71" y="626" width="12" height="12" as="geometry" />
        </mxCell>
        <mxCell id="XcxY55ZgRGtIY92PdKvF-35" value="" style="verticalLabelPosition=bottom;verticalAlign=top;html=1;shape=mxgraph.basic.heart;fillColor=#FFFFFF;" vertex="1" parent="1">
          <mxGeometry x="83" y="626" width="12" height="12" as="geometry" />
        </mxCell>
      </root>
    </mxGraphModel>
  </diagram>
</mxfile>
